<?xml version="1.0" encoding="UTF-8" standalone="no"?>
<!DOCTYPE svg PUBLIC "-//W3C//DTD SVG 1.1//EN" "http://www.w3.org/Graphics/SVG/1.1/DTD/svg11.dtd">
<svg width="100%" height="100%" viewBox="0 0 72 72" version="1.1" xmlns="http://www.w3.org/2000/svg" xmlns:xlink="http://www.w3.org/1999/xlink" xml:space="preserve" xmlns:serif="http://www.serif.com/" style="fill-rule:evenodd;clip-rule:evenodd;stroke-linejoin:round;stroke-miterlimit:2;">
    <g transform="matrix(0.12,0,0,0.12,-630,-35.8345)">
        <path d="M5375,298.621L5725,298.621C5733.56,298.621 5741.92,299.483 5750,301.126C5798.95,311.078 5837.54,349.672 5847.49,398.621C5849.14,406.7 5850,415.06 5850,423.621L5850,773.621C5850,782.181 5849.14,790.542 5847.49,798.621C5837.54,847.569 5798.95,886.163 5750,896.116C5741.92,897.758 5733.56,898.621 5725,898.621L5375,898.621C5366.44,898.621 5358.08,897.758 5350,896.116C5301.05,886.163 5262.46,847.569 5252.51,798.621C5250.86,790.542 5250,782.181 5250,773.621L5250,423.621C5250,415.06 5250.86,406.7 5252.51,398.621C5262.46,349.672 5301.05,311.078 5350,301.126C5358.08,299.483 5366.44,298.621 5375,298.621ZM5700,398.621L5400,398.621C5372.4,398.621 5350,421.025 5350,448.621L5350,748.621C5350,776.217 5372.4,798.621 5400,798.621L5700,798.621C5727.6,798.621 5750,776.217 5750,748.621L5750,448.621C5750,421.025 5727.6,398.621 5700,398.621ZM5500,450C5500,422.404 5522.4,400 5550,400C5577.6,400 5600,422.404 5600,450L5600,548.621L5650,548.621C5677.6,548.621 5700,571.025 5700,598.621C5700,626.217 5677.6,648.621 5650,648.621L5550,648.621C5522.4,648.621 5500,626.217 5500,598.621L5500,450Z" style="fill:rgb(252,184,20);"/>
    </g>
</svg>
